<svg xmlns="http://www.w3.org/2000/svg" xmlns:xlink="http://www.w3.org/1999/xlink" width="500" zoomAndPan="magnify" viewBox="0 0 375 374.999991" height="500" preserveAspectRatio="xMidYMid meet" version="1.0"><defs><clipPath id="7adfa9bfb4"><path d="M 209.492188 183.503906 L 337.402344 183.503906 L 337.402344 255.175781 L 209.492188 255.175781 Z M 209.492188 183.503906 " clip-rule="nonzero"/></clipPath><clipPath id="2a3d012a85"><path d="M 37.5 183 L 219 183 L 219 271.875 L 37.5 271.875 Z M 37.5 183 " clip-rule="nonzero"/></clipPath><clipPath id="079d2de227"><path d="M 293 103.125 L 322 103.125 L 322 131 L 293 131 Z M 293 103.125 " clip-rule="nonzero"/></clipPath></defs><path fill="#ffffff" d="M 148.238281 183.078125 C 148.238281 191.09375 145.140625 198.125 139.027344 203.984375 C 132.941406 209.816406 125.625 212.773438 117.273438 212.773438 C 109.015625 212.773438 101.75 210.664062 95.667969 206.503906 C 91.363281 203.5625 88.0625 199.410156 85.808594 194.121094 C 84.980469 192.195312 84.296875 190.113281 83.753906 187.886719 C 83.644531 187.4375 83.539062 186.984375 83.441406 186.523438 L 83.347656 186.074219 C 83.09375 184.882812 84 183.761719 85.21875 183.761719 L 98.867188 183.761719 C 99.867188 183.761719 100.75 184.410156 101.046875 185.363281 C 101.386719 186.441406 101.769531 187.453125 102.195312 188.390625 C 104.996094 194.519531 109.703125 197.515625 116.507812 197.515625 C 120.488281 197.515625 123.867188 196.175781 126.835938 193.429688 C 129.753906 190.734375 131.171875 187.703125 131.171875 184.167969 C 131.171875 183.449219 131.125 182.746094 131.03125 182.050781 C 130.820312 180.515625 130.371094 179.042969 129.683594 177.621094 C 129.03125 176.265625 128.160156 174.953125 127.066406 173.671875 C 124.421875 170.570312 119.847656 168.9375 113.476562 168.8125 L 113.117188 168.804688 C 112.074219 168.785156 111.238281 167.933594 111.238281 166.890625 L 111.238281 155.195312 C 111.238281 154.148438 112.078125 153.296875 113.121094 153.28125 L 113.484375 153.273438 C 118.34375 153.191406 122.152344 152.027344 124.808594 149.816406 C 127.363281 147.691406 128.605469 145.035156 128.605469 141.699219 C 128.605469 138.1875 127.414062 135.296875 124.964844 132.855469 C 122.519531 130.410156 119.613281 129.226562 116.09375 129.226562 C 112.773438 129.226562 110.136719 130.027344 108.253906 131.605469 C 106.277344 133.269531 104.617188 136.058594 103.324219 139.894531 L 103.238281 140.144531 C 102.976562 140.925781 102.246094 141.449219 101.425781 141.449219 L 87.832031 141.449219 C 86.6875 141.449219 85.800781 140.457031 85.929688 139.320312 L 85.972656 138.914062 C 86.875 130.859375 90.121094 124.601562 95.625 120.3125 C 101.035156 116.101562 107.640625 113.964844 115.257812 113.964844 C 123.984375 113.964844 131.332031 116.511719 137.105469 121.53125 C 142.972656 126.636719 145.945312 133.125 145.945312 140.8125 C 145.945312 148.347656 142.941406 154.539062 136.996094 159.285156 C 136.011719 160.070312 136.054688 161.578125 137.066406 162.316406 C 142.207031 166.0625 145.585938 170.554688 147.179688 175.75 C 147.574219 177.046875 147.863281 178.390625 148.035156 179.773438 C 148.171875 180.847656 148.238281 181.949219 148.238281 183.078125 " fill-opacity="1" fill-rule="nonzero"/><path fill="#ffffff" d="M 200.394531 190.609375 C 197.011719 193.992188 193.019531 195.636719 188.1875 195.636719 C 183.257812 195.636719 179.203125 194 175.796875 190.636719 C 172.398438 187.277344 170.746094 183.277344 170.746094 178.40625 C 170.746094 178.28125 170.746094 178.15625 170.75 178.035156 C 170.773438 176.746094 170.929688 175.511719 171.21875 174.324219 C 171.949219 171.328125 173.527344 168.632812 175.988281 166.15625 C 179.507812 162.617188 183.5 160.894531 188.1875 160.894531 C 192.871094 160.894531 196.828125 162.59375 200.28125 166.085938 C 202.691406 168.523438 204.238281 171.214844 204.949219 174.246094 C 205.226562 175.414062 205.382812 176.636719 205.410156 177.910156 C 205.417969 178.074219 205.417969 178.242188 205.417969 178.40625 C 205.417969 183.238281 203.777344 187.230469 200.394531 190.609375 Z M 222.484375 175.09375 C 221.78125 167.957031 218.4375 161.535156 212.523438 155.976562 C 205.859375 149.714844 198.011719 146.535156 189.203125 146.535156 L 189.140625 146.535156 L 189.078125 146.539062 L 187.785156 146.609375 L 204.546875 122.089844 L 204.546875 122.085938 C 205.257812 121.050781 204.992188 119.640625 203.960938 118.925781 L 194.761719 112.566406 L 194.761719 112.5625 C 193.726562 111.847656 192.308594 112.105469 191.589844 113.140625 L 159.988281 158.769531 C 156.46875 163.847656 154.386719 169.375 153.792969 175.238281 C 153.671875 176.417969 153.609375 177.613281 153.609375 178.820312 C 153.609375 178.953125 153.609375 179.082031 153.613281 179.210938 C 153.707031 188.441406 157.132812 196.4375 163.808594 202.988281 C 170.5625 209.621094 178.8125 212.980469 188.328125 212.980469 C 197.859375 212.980469 206.050781 209.550781 212.671875 202.78125 C 219.058594 196.25 222.402344 188.238281 222.617188 178.953125 C 222.625 178.636719 222.628906 178.3125 222.628906 177.988281 C 222.628906 177.011719 222.582031 176.046875 222.484375 175.09375 " fill-opacity="1" fill-rule="nonzero"/><path fill="#ffffff" d="M 275.542969 182.324219 C 274.875 184.046875 274.101562 185.652344 273.21875 187.132812 C 273.183594 187.195312 273.144531 187.253906 273.105469 187.3125 C 269.722656 192.914062 265.570312 195.636719 260.421875 195.636719 C 254.964844 195.636719 250.59375 192.90625 247.078125 187.296875 C 245.96875 185.53125 245.027344 183.578125 244.253906 181.441406 C 243.730469 180.019531 243.289062 178.511719 242.914062 176.925781 C 241.988281 172.972656 241.523438 168.527344 241.523438 163.613281 C 241.523438 153.667969 243.371094 145.601562 247.023438 139.625 C 250.496094 133.933594 254.789062 131.171875 260.144531 131.171875 C 265.3125 131.171875 269.535156 133.96875 273.058594 139.734375 C 276.753906 145.773438 278.628906 153.667969 278.628906 163.195312 C 278.628906 170.628906 277.589844 177.039062 275.542969 182.324219 Z M 286.292969 128.03125 C 279.777344 118.695312 271.167969 113.964844 260.699219 113.964844 L 260.003906 113.964844 C 250.230469 113.964844 241.761719 118.503906 234.828125 127.457031 C 228.039062 136.230469 224.59375 148.53125 224.59375 164.03125 C 224.59375 167.96875 224.855469 171.726562 225.382812 175.296875 C 225.582031 176.644531 225.816406 177.960938 226.09375 179.257812 C 227.664062 186.71875 230.480469 193.28125 234.503906 198.875 C 241.246094 208.234375 249.875 212.980469 260.144531 212.980469 C 270.019531 212.980469 278.5625 208.359375 285.535156 199.238281 C 287.089844 197.203125 288.472656 195.007812 289.675781 192.652344 C 290.601562 190.847656 291.421875 188.953125 292.136719 186.960938 C 294.59375 180.140625 295.832031 172.242188 295.832031 163.332031 C 295.832031 148.988281 292.621094 137.109375 286.292969 128.03125 " fill-opacity="1" fill-rule="nonzero"/><g clip-path="url(#7adfa9bfb4)"><path fill="#ffffff" d="M 337.402344 206.210938 C 337.433594 208.492188 336.957031 210.761719 336.152344 212.769531 C 335.34375 214.789062 334.238281 216.570312 333.019531 218.140625 C 331.792969 219.707031 330.460938 221.09375 329.074219 222.351562 C 327.6875 223.613281 326.246094 224.757812 324.777344 225.800781 C 318.878906 229.976562 312.617188 232.992188 306.292969 235.648438 C 299.957031 238.277344 293.515625 240.46875 287.023438 242.382812 C 280.527344 244.289062 273.984375 245.9375 267.40625 247.386719 C 247.222656 251.78125 230.039062 254.242188 209.519531 255.167969 L 226.925781 245.480469 L 211.296875 237.902344 C 217.40625 237.734375 220.214844 237.476562 226.316406 237.132812 C 239.230469 236.394531 252.132812 235.285156 264.90625 233.5 C 271.289062 232.601562 277.640625 231.527344 283.917969 230.195312 C 290.179688 228.84375 296.386719 227.265625 302.382812 225.257812 C 305.371094 224.25 308.320312 223.148438 311.160156 221.890625 C 312.578125 221.257812 313.976562 220.605469 315.328125 219.898438 C 316.6875 219.203125 318 218.449219 319.253906 217.652344 C 320.515625 216.863281 321.707031 216.015625 322.808594 215.117188 C 323.910156 214.222656 324.929688 213.28125 325.773438 212.289062 C 326.625 211.300781 327.308594 210.273438 327.773438 209.253906 C 328.242188 208.234375 328.5 207.230469 328.550781 206.210938 C 328.578125 205.195312 328.390625 204.15625 327.984375 203.082031 C 327.574219 202.011719 326.933594 200.914062 326.121094 199.855469 C 325.3125 198.792969 324.335938 197.765625 323.257812 196.785156 C 322.1875 195.8125 321.019531 194.878906 319.777344 194.003906 C 318.539062 193.121094 317.25 192.28125 315.90625 191.496094 C 314.574219 190.695312 313.1875 189.949219 311.792969 189.230469 C 310.011719 188.324219 306.59375 186.828125 304.1875 185.796875 C 303.71875 185.597656 303.4375 185.125 303.480469 184.617188 C 303.546875 183.902344 304.226562 183.414062 304.925781 183.578125 C 313.171875 185.535156 325.335938 190.453125 330.652344 194.832031 C 331.199219 195.28125 332.070312 196.011719 332.925781 196.808594 C 335.320312 199.042969 336.90625 202.03125 337.324219 205.28125 C 337.371094 205.613281 337.398438 205.929688 337.402344 206.210938 " fill-opacity="1" fill-rule="nonzero"/></g><g clip-path="url(#2a3d012a85)"><path fill="#ffffff" d="M 218.628906 245.652344 L 168.484375 222.800781 L 173.160156 238.046875 C 165.464844 237.875 156.214844 237.527344 148.660156 237.09375 C 135.742188 236.335938 122.847656 235.210938 110.078125 233.410156 C 103.699219 232.511719 97.351562 231.425781 91.078125 230.089844 C 84.816406 228.734375 78.617188 227.152344 72.628906 225.144531 C 69.640625 224.132812 66.703125 223.027344 63.863281 221.773438 C 62.453125 221.144531 61.054688 220.492188 59.707031 219.78125 C 58.347656 219.089844 57.042969 218.335938 55.789062 217.542969 C 54.53125 216.753906 53.34375 215.910156 52.246094 215.019531 C 51.148438 214.128906 50.144531 213.1875 49.304688 212.203125 C 48.457031 211.222656 47.777344 210.207031 47.320312 209.203125 C 46.859375 208.195312 46.605469 207.210938 46.554688 206.210938 C 46.53125 205.210938 46.707031 204.195312 47.113281 203.132812 C 47.511719 202.074219 48.144531 200.992188 48.949219 199.9375 C 49.757812 198.882812 50.726562 197.863281 51.796875 196.886719 C 52.867188 195.914062 54.027344 194.984375 55.265625 194.109375 C 56.5 193.230469 57.785156 192.394531 59.125 191.605469 C 60.453125 190.808594 61.835938 190.066406 63.234375 189.34375 C 64.53125 188.683594 66.691406 187.691406 68.144531 187.035156 C 68.277344 186.976562 68.402344 186.898438 68.511719 186.808594 C 69.332031 186.449219 70.132812 186.105469 70.847656 185.796875 C 71.316406 185.601562 71.601562 185.125 71.554688 184.617188 C 71.503906 184 70.976562 183.546875 70.382812 183.546875 C 70.296875 183.546875 70.203125 183.558594 70.109375 183.582031 C 69.535156 183.714844 68.941406 183.867188 68.332031 184.03125 C 60.203125 186.214844 49.332031 190.757812 44.382812 194.832031 C 43.839844 195.28125 42.964844 196.011719 42.109375 196.808594 C 39.71875 199.042969 38.128906 202.03125 37.710938 205.277344 C 37.667969 205.613281 37.640625 205.929688 37.632812 206.210938 C 37.601562 208.492188 38.082031 210.761719 38.882812 212.769531 C 39.695312 214.789062 40.796875 216.570312 42.015625 218.136719 C 43.242188 219.707031 44.574219 221.089844 45.964844 222.351562 C 47.347656 223.613281 48.792969 224.757812 50.257812 225.800781 C 56.160156 229.976562 62.421875 232.992188 68.742188 235.648438 C 75.078125 238.277344 81.519531 240.46875 88.015625 242.382812 C 94.511719 244.289062 101.050781 245.9375 107.632812 247.386719 C 111.535156 248.238281 115.320312 249.011719 119.046875 249.71875 C 134.121094 252.375 149.707031 253.996094 164.902344 254.824219 C 167.671875 254.980469 170.425781 255.105469 173.160156 255.203125 L 168.828125 271.875 L 218.628906 245.652344 " fill-opacity="1" fill-rule="nonzero"/></g><g clip-path="url(#079d2de227)"><path fill="#ffffff" d="M 307.644531 108.597656 C 303.117188 108.597656 299.433594 112.28125 299.433594 116.8125 C 299.433594 121.339844 303.117188 125.023438 307.644531 125.023438 C 312.171875 125.023438 315.859375 121.339844 315.859375 116.8125 C 315.859375 112.28125 312.171875 108.597656 307.644531 108.597656 Z M 307.644531 130.496094 C 300.097656 130.496094 293.960938 124.355469 293.960938 116.8125 C 293.960938 109.265625 300.097656 103.125 307.644531 103.125 C 315.191406 103.125 321.332031 109.265625 321.332031 116.8125 C 321.332031 124.355469 315.191406 130.496094 307.644531 130.496094 " fill-opacity="1" fill-rule="nonzero"/></g></svg>