<svg xmlns="http://www.w3.org/2000/svg" xmlns:xlink="http://www.w3.org/1999/xlink" width="500" zoomAndPan="magnify" viewBox="0 0 375 374.999991" height="500" preserveAspectRatio="xMidYMid meet" version="1.0"><defs><clipPath id="fc573b830e"><path d="M 93.074219 46 L 281 46 L 281 329.105469 L 93.074219 329.105469 Z M 93.074219 46 " clip-rule="nonzero"/></clipPath></defs><g clip-path="url(#fc573b830e)"><path fill="#ffffff" d="M 120.628906 168.6875 C 121.226562 169.28125 121.914062 169.742188 122.691406 170.0625 C 123.46875 170.382812 124.28125 170.546875 125.121094 170.546875 L 125.136719 170.546875 C 125.984375 170.542969 126.796875 170.378906 127.578125 170.054688 C 128.355469 169.726562 129.042969 169.265625 129.640625 168.664062 L 163.390625 134.609375 L 163.390625 322.734375 C 163.390625 323.152344 163.429688 323.5625 163.511719 323.972656 C 163.59375 324.382812 163.714844 324.777344 163.875 325.164062 C 164.035156 325.546875 164.230469 325.914062 164.460938 326.257812 C 164.691406 326.605469 164.957031 326.925781 165.25 327.21875 C 165.546875 327.515625 165.867188 327.777344 166.214844 328.007812 C 166.558594 328.238281 166.925781 328.433594 167.3125 328.59375 C 167.699219 328.753906 168.09375 328.875 168.503906 328.957031 C 168.914062 329.035156 169.328125 329.078125 169.742188 329.078125 L 204.769531 329.078125 C 205.1875 329.078125 205.601562 329.035156 206.007812 328.957031 C 206.417969 328.875 206.816406 328.753906 207.199219 328.59375 C 207.585938 328.433594 207.953125 328.238281 208.300781 328.007812 C 208.644531 327.777344 208.96875 327.515625 209.261719 327.21875 C 209.558594 326.925781 209.820312 326.605469 210.050781 326.257812 C 210.285156 325.914062 210.480469 325.546875 210.640625 325.164062 C 210.800781 324.777344 210.917969 324.382812 211 323.972656 C 211.082031 323.5625 211.125 323.152344 211.125 322.734375 L 211.125 134.492188 L 245.378906 168.6875 C 245.945312 169.332031 246.628906 169.820312 247.421875 170.144531 C 248.21875 170.472656 249.046875 170.605469 249.902344 170.546875 C 250.75 170.542969 251.566406 170.375 252.347656 170.042969 C 253.125 169.714844 253.8125 169.25 254.40625 168.644531 L 278.878906 143.738281 C 279.167969 143.441406 279.429688 143.121094 279.65625 142.773438 C 279.882812 142.429688 280.074219 142.0625 280.230469 141.679688 C 280.386719 141.296875 280.503906 140.902344 280.582031 140.496094 C 280.660156 140.089844 280.699219 139.679688 280.695312 139.265625 C 280.695312 138.851562 280.652344 138.441406 280.570312 138.035156 C 280.488281 137.628906 280.367188 137.238281 280.207031 136.855469 C 280.046875 136.472656 279.851562 136.109375 279.621094 135.765625 C 279.390625 135.421875 279.128906 135.105469 278.835938 134.8125 L 191.988281 48.121094 C 191.695312 47.828125 191.375 47.566406 191.03125 47.335938 C 190.6875 47.105469 190.324219 46.910156 189.941406 46.753906 C 189.558594 46.59375 189.164062 46.472656 188.757812 46.390625 C 188.351562 46.308594 187.941406 46.265625 187.527344 46.261719 C 187.113281 46.261719 186.699219 46.300781 186.292969 46.378906 C 185.886719 46.457031 185.492188 46.574219 185.105469 46.730469 C 184.722656 46.882812 184.355469 47.074219 184.011719 47.304688 C 183.664062 47.53125 183.34375 47.789062 183.046875 48.078125 L 158.054688 72.550781 L 95.675781 134.8125 C 95.382812 135.105469 95.117188 135.425781 94.886719 135.773438 C 94.65625 136.117188 94.460938 136.484375 94.300781 136.867188 C 94.140625 137.253906 94.019531 137.648438 93.9375 138.058594 C 93.855469 138.464844 93.816406 138.878906 93.816406 139.296875 C 93.816406 139.710938 93.855469 140.125 93.9375 140.53125 C 94.019531 140.941406 94.140625 141.335938 94.300781 141.722656 C 94.460938 142.105469 94.65625 142.472656 94.886719 142.820312 C 95.117188 143.164062 95.382812 143.484375 95.675781 143.78125 Z M 120.628906 168.6875 " fill-opacity="1" fill-rule="nonzero"/></g></svg>