<svg xmlns="http://www.w3.org/2000/svg" xmlns:xlink="http://www.w3.org/1999/xlink" width="500" zoomAndPan="magnify" viewBox="0 0 375 374.999991" height="500" preserveAspectRatio="xMidYMid meet" version="1.0"><defs><clipPath id="7b2bfa7ad0"><path d="M 95 44.054688 L 281 44.054688 L 281 331.304688 L 95 331.304688 Z M 95 44.054688 " clip-rule="nonzero"/></clipPath></defs><g clip-path="url(#7b2bfa7ad0)"><path fill="#ffffff" d="M 189.226562 44.054688 C 129.925781 44.054688 96.296875 77.304688 95.339844 125.429688 L 95.339844 127.835938 L 147.691406 127.835938 L 147.691406 125.429688 C 148.839844 104.171875 163.535156 90.457031 185.746094 90.457031 C 207.765625 90.457031 222.449219 103.199219 222.449219 121.175781 C 222.449219 139.152344 214.914062 148.433594 190 163.324219 C 163.339844 178.976562 152.703125 196.378906 155.214844 227.304688 L 155.519531 235.554688 L 206.796875 235.554688 L 206.796875 227.703125 C 206.796875 209.148438 213.949219 199.660156 239.640625 184.78125 C 266.875 168.734375 280.96875 148.445312 280.96875 119.445312 C 280.96875 74.789062 244.476562 44.054688 189.226562 44.054688 Z M 182.265625 271.460938 C 162.613281 271.460938 150.355469 282.878906 150.355469 301.476562 C 150.355469 319.910156 162.625 331.304688 182.265625 331.304688 C 201.90625 331.304688 214.015625 319.910156 214.015625 301.476562 C 214.015625 282.878906 201.917969 271.460938 182.265625 271.460938 Z M 182.265625 271.460938 " fill-opacity="1" fill-rule="nonzero"/></g></svg>